<?xml version="1.0" encoding="utf-8"?>
<!-- Generator: Adobe Illustrator 21.0.2, SVG Export Plug-In . SVG Version: 6.00 Build 0)  -->
<svg version="1.1" id="Layer_1" xmlns="http://www.w3.org/2000/svg" xmlns:xlink="http://www.w3.org/1999/xlink" x="0px" y="0px"
	 viewBox="0 0 33.3 46.2" style="enable-background:new 0 0 33.3 46.2;" xml:space="preserve">
<style type="text/css">
	.st0{fill:#28373D;}
	.st1{fill:#A01C2E;}
</style>
<g>
	<path class="st0" d="M21.6,45.5H0.7V24.6h20.9V45.5z M3,43.2h16.3V26.9H3V43.2z"/>
</g>
<g>
	<path class="st1" d="M32.6,2.6c0.2-0.5,0-1.1-0.4-1.5c-0.4-0.3-1-0.4-1.5-0.1c0,0-0.3,0.1-0.5,0.3c-0.1,0-0.1,0.1-0.2,0.1
		c0,0,0,0-0.1,0c-0.4,0-0.7,0.2-0.9,0.4c-0.1,0-0.1,0.1-0.2,0.1c-0.1,0.1-0.2,0.2-0.3,0.3c-0.1,0.1-0.2,0.2-0.3,0.4
		c-0.1,0-0.1,0.1-0.2,0.1c0,0,0,0,0,0c-0.1,0.1-0.1,0.1-0.2,0.2c-0.2,0.1-0.3,0.2-0.5,0.4c-0.3,0.2-0.5,0.5-0.6,0.6
		c0,0-0.1,0.1-0.1,0.1c-0.1,0-0.1,0-0.2,0.1c-0.2,0.1-0.4,0.2-0.6,0.4c-0.1,0.1-0.2,0.2-0.2,0.3c0,0,0,0,0,0
		c-0.2,0.2-0.4,0.4-0.6,0.7c-0.1,0.1-0.2,0.2-0.4,0.4c-0.1,0.1-0.2,0.2-0.2,0.4c0,0,0,0-0.1,0.1c-0.1,0.1-0.4,0.4-0.6,0.7
		c-0.2,0.2-0.3,0.5-0.3,0.8c0,0.1-0.2,0.3-0.3,0.4c0,0,0,0,0,0c-0.3,0.2-0.5,0.6-0.6,1c-0.1,0.1-0.2,0.3-0.3,0.5
		C22,9.7,22,9.8,21.8,10c-0.1,0.1-0.1,0.1-0.2,0.2c-0.1,0.1-0.1,0.1-0.2,0.2c-0.1,0.1-0.2,0.2-0.2,0.3c-0.1,0.1-0.1,0.2-0.2,0.3
		c-0.3,0.2-0.6,0.5-0.7,1c0,0,0,0,0,0c-0.3,0.5-0.4,0.6-0.8,1.2c-0.1,0.1-0.1,0.2-0.2,0.3c-0.1,0.1-0.2,0.3-0.3,0.5
		c-0.2,0.4-0.4,0.6-0.6,0.7c-0.2,0.2-0.3,0.4-0.4,0.6c-0.1,0.2-0.2,0.4-0.2,0.6c0,0,0,0,0,0c-0.1,0.2-0.2,0.3-0.3,0.5
		c0,0.1,0,0.1-0.1,0.1c0,0.1-0.1,0.2-0.1,0.2c0,0,0,0,0,0c-0.2,0.3-0.4,0.5-0.4,0.7c-0.3,0.2-0.6,0.5-0.7,0.9
		c-0.1,0.1-0.1,0.2-0.1,0.2c-0.2,0.3-0.3,0.6-0.2,1c0,0.1,0,0.2,0.1,0.2c-0.1,0.1-0.1,0.2-0.2,0.3l-0.2,0.4c0,0,0,0.1,0,0.1
		c0,0,0,0,0,0c-0.4,0.5-0.5,0.9-0.7,1.3c-0.1,0.2-0.2,0.3-0.3,0.5c0,0,0,0,0,0c0,0,0,0,0,0c0,0-0.1,0.1-0.1,0.1
		c-0.2,0.1-0.4,0.4-0.5,0.6c-0.1,0.1-0.1,0.2-0.1,0.3c0,0,0,0,0,0c-0.2,0.2-0.3,0.5-0.3,0.8l0,0.4c0,0,0,0,0,0.1
		c-0.1,0.2-0.2,0.4-0.2,0.5c0,0,0,0,0,0c-0.2,0.2-0.3,0.5-0.3,0.7l-0.1,0.3c-0.1,0.1-0.1,0.1-0.2,0.2c-0.1,0.2-0.2,0.4-0.2,0.6
		c0,0.1-0.1,0.2-0.1,0.3c-0.1,0.1-0.2,0.2-0.2,0.3c-0.2,0.3-0.2,0.6-0.3,0.9c0,0.2-0.1,0.3-0.1,0.4c-0.3,0.4-0.5,0.8-0.7,1.3
		c0,0.1-0.1,0.2-0.1,0.3c0,0.1,0,0.1-0.1,0.2c0,0,0,0,0,0c-0.1-0.4-0.4-0.7-0.5-0.9c0-0.1-0.1-0.2-0.1-0.2c0-0.1-0.1-0.2-0.2-0.3
		c-0.3-0.7-0.6-1.3-0.9-2c-0.3-0.5-0.5-1-0.8-1.5c-0.1-0.2-0.2-0.3-0.3-0.4c0-0.1-0.1-0.2-0.1-0.2c-0.1-0.5-0.3-0.8-0.6-1
		c0-0.1,0-0.1-0.1-0.2c0-0.1-0.1-0.2-0.2-0.3c-0.1-0.2-0.2-0.3-0.3-0.4c0,0,0,0-0.1-0.1c-0.1-0.3-0.3-0.6-0.4-0.9
		c0-0.3-0.1-0.5-0.3-0.7c-0.1-0.2-0.2-0.4-0.3-0.6c0-0.1-0.1-0.1-0.1-0.2c0-0.3-0.2-0.6-0.4-0.8c0,0,0,0-0.1-0.1c0,0,0,0,0,0
		c0,0-0.1-0.1-0.1-0.1L4,19.4c-0.3-0.2-0.7-0.3-1-0.3c-0.4,0.1-0.7,0.2-0.9,0.5l-0.4,0.6c-0.2,0.2-0.3,0.5-0.3,0.8l0,1.2
		c0,0.2,0.1,0.5,0.2,0.7l1.3,2.4l0.8,2c0,0,0,0.1,0.1,0.1l2.5,4.9c0.1,0.1,0.2,0.3,0.3,0.4l0,0c0.2,0.5,0.4,1,0.7,1.5l0.1,0.2
		c0.3,0.5,0.4,0.8,0.9,1.8c0.1,0.2,0.2,0.3,0.3,0.4c0,0,0,0.1,0,0.1c0,0.1,0,0.1,0.1,0.2l0.8,1.6l0.7,1.3c0,0,0,0,0,0l0,0
		c0,0.1,0.1,0.2,0.1,0.3c0.2,0.3,0.5,0.5,0.8,0.6c0.2,0,0.3,0.1,0.5,0c0.5-0.1,0.9-0.4,1.1-0.9l0.3-0.8c0.3-0.9,0.6-1.7,0.8-2.4
		l0.2-0.5c0.1-0.4,0.3-0.7,0.4-1.1l0.3-0.9c0.4-1.1,0.8-2.1,1.2-2.9c0.1-0.2,0.2-0.4,0.4-0.7c0-0.1,0.1-0.2,0.1-0.3
		c0.1-0.2,0.2-0.3,0.3-0.6c0.1-0.3,0.2-0.7,0.3-1.1c0.1-0.3,0.3-0.7,0.4-0.9c0.1-0.1,0.1-0.2,0.1-0.3l0,0c0-0.1,0.1-0.1,0.1-0.2
		c0.1-0.1,0.1-0.3,0.1-0.4c0-0.2,0.3-0.6,0.4-0.8c0,0,0-0.1,0.1-0.1c0.1-0.1,0.1-0.2,0.2-0.3c0.3-0.7,0.7-1.4,1-2.1
		c0.4-0.8,0.7-1.6,1.1-2.3c0.8-1.6,1.5-2.9,2.2-4.1c0.5-0.6,0.9-1.4,1.3-2.1c0.4-0.7,0.8-1.5,1.3-2.1c0.2-0.2,0.3-0.4,0.6-0.8
		c0,0,0,0,0,0l0.7-1.1c0,0,0,0,0,0c0.2-0.3,0.4-0.6,0.6-0.9c0.4-0.7,0.6-0.9,0.7-1.1c0.1-0.1,0.1-0.2,0.1-0.4
		c0.1-0.1,0.1-0.2,0.2-0.3l0.1-0.1c0.1-0.2,0.3-0.4,0.5-0.6l0-0.1c0.1-0.1,0.2-0.2,0.2-0.3c0.3-0.2,0.3-0.5,0.4-0.6
		c0-0.1,0.1-0.1,0.2-0.2C29.6,6.3,29.8,6.2,30,6c0.2-0.1,0.3-0.2,0.4-0.3c0.2-0.2,0.3-0.4,0.4-0.6c0,0,0,0,0-0.1
		c0.3-0.1,0.5-0.3,0.6-0.6c0-0.1,0.1-0.2,0.1-0.2c0-0.1,0.1-0.1,0.1-0.2c0.2-0.2,0.3-0.3,0.4-0.5C32.4,3,32.5,2.8,32.6,2.6z M18,18
		C18,18,17.9,17.9,18,18C17.9,17.9,17.9,17.9,18,18C17.9,17.9,18,18,18,18z M17.8,17.8C17.8,17.8,17.8,17.8,17.8,17.8
		c0,0,0-0.1-0.1-0.1C17.8,17.7,17.8,17.7,17.8,17.8z"/>
</g>
</svg>
