<?xml version="1.0" encoding="utf-8"?>
<!-- Generator: Adobe Illustrator 19.0.0, SVG Export Plug-In . SVG Version: 6.00 Build 0)  -->
<!DOCTYPE svg PUBLIC "-//W3C//DTD SVG 1.1//EN" "http://www.w3.org/Graphics/SVG/1.1/DTD/svg11.dtd">
<svg version="1.1" id="Layer_1" xmlns="http://www.w3.org/2000/svg" xmlns:xlink="http://www.w3.org/1999/xlink" x="0px" y="0px"
	 viewBox="0 0 23.6 23.6" style="enable-background:new 0 0 23.6 23.6;" xml:space="preserve">
<style type="text/css">
	.st0{fill-rule:evenodd;clip-rule:evenodd;fill:#182D35;}
</style>
<path class="st0" d="M20.9,10h-2.1c0.1,0.6,0.2,1.2,0.2,1.8c0,4-3.2,7.3-7.3,7.3c-4,0-7.3-3.3-7.3-7.3c0-0.6,0.1-1.2,0.2-1.8H2.7v10
	c0,0.5,0.4,0.9,0.9,0.9H20c0.5,0,0.9-0.4,0.9-0.9V10L20.9,10z M20.9,3.6c0-0.5-0.4-0.9-0.9-0.9h-2.7c-0.5,0-0.9,0.4-0.9,0.9v2.7
	c0,0.5,0.4,0.9,0.9,0.9H20c0.5,0,0.9-0.4,0.9-0.9V3.6L20.9,3.6z M11.8,7.3c-2.5,0-4.5,2-4.5,4.5c0,2.5,2,4.5,4.5,4.5s4.5-2,4.5-4.5
	C16.3,9.3,14.3,7.3,11.8,7.3 M20.9,23.6H2.7c-1.5,0-2.7-1.2-2.7-2.7V2.7C0,1.2,1.2,0,2.7,0h18.1c1.5,0,2.7,1.2,2.7,2.7v18.1
	C23.6,22.4,22.4,23.6,20.9,23.6"/>
</svg>
