<?xml version="1.0" encoding="utf-8"?>
<!-- Generator: Adobe Illustrator 20.1.0, SVG Export Plug-In . SVG Version: 6.00 Build 0)  -->
<svg version="1.1" id="Layer_1" xmlns="http://www.w3.org/2000/svg" xmlns:xlink="http://www.w3.org/1999/xlink" x="0px" y="0px"
	 viewBox="0 0 390.7 200.3" style="enable-background:new 0 0 390.7 200.3;" xml:space="preserve">
<style type="text/css">
	.st0{fill:#29373D;}
	.st1{fill:#731829;}
</style>
<g>
	<g>
		<path class="st0" d="M20.8,27.5c0.3-0.8,0.6-1.6,0.9-2.4c0.3-0.8,0.6-1.5,0.9-2.1c0.4-0.8,0.8,0.9,1.2,0.2
			c0.4-0.8,0.7-1.6,1.1-2.3c0.1,0,0.1-0.1,0.3-0.1c1.8-0.2,0.7,0,2.7-0.2c1.9-0.2,3.7-0.6,5.3-1.1c0.6-0.2,1.2-0.5,1.5-0.7
			c0.4-0.2,0.2-0.5-0.7-0.9c-0.2-0.1-0.4-0.2-0.7-0.3c-0.3-0.1-0.6-0.2-0.9-0.3c-0.3-0.1-0.6-0.1-0.8,0c-0.2,0.1-0.4,0.2-0.4,0.4
			c-1.4,0.1-2.7,0.2-4,0.3c-1.4,0.2,0.2-0.1-1.2,0l0.2-0.8c0.4-1.6,0.7-3.2,1.1-4.8c0.4-1.6,0.8-3.2,1.2-4.8c0.1-0.3,0.1-0.6,0-0.9
			c-0.1-0.3-0.2-0.6-0.5-0.8c-0.3-0.2-0.7-0.4-1.2-0.5C25.7,5.2,24.6,5,23.5,5c-1.1-0.1-2.2,0-3.4,0.2c-0.3,0.5-0.6,1-0.8,1.5
			c-0.3,0.5-0.5,1-0.7,1.5c-0.1,0.2-0.2,0.5-0.2,0.7c0,0.2-0.1,0.5-0.2,0.8c-0.1,0.3-0.2,0.6-0.4,0.7c-1.2,1-1.6,2.1-1.2,3.2
			c0.1,0.2,0,0.4-0.1,0.7c-0.1,0.2-0.3,0.7-0.4,1.6c-0.1,0.9-0.3,1.9-0.4,3c-0.1,0-0.4,0-0.7,0.1c-0.9,0.1-1.9,0.2-2.8,0.4
			c-0.9,0.1-1.9,0.3-2.9,0.4c-0.3,0-0.7,0.1-1.2,0.1c-0.5,0-1.1,0-1.7,0c-0.6,0-1.1,0-1.6,0.1C4.4,19.8,4,19.9,3.8,20
			c-0.4,0.2-0.5,0.3-0.4,0.5c0.1,0.2,0.3,0.3,0.7,0.4c0.3,0.1,0.7,0.2,1.1,0.3c0.4,0.1,0.7,0.1,0.9,0.1c1.5,0.1,2.9,0.1,4.4,0.1
			c1.5,0,3-0.1,4.5-0.1h0.4c-0.1,0.5-0.2,0.9-0.3,1.3c-0.1,0.4-0.1,0.8-0.3,1.1c-0.4,1.7-0.7,0.9-0.7,2.6c-0.1,1.7-0.2,3-0.2,4.1
			c0,0.8,0,1.6,0,2.4c0,0.8,0,1.7-0.1,2.4c-0.2,0.8-0.1,1.6,0.1,2.3c0.3,0.7,0.7,1.5,1.2,2.2c0.1,0.1,0.2,0.3,0.4,0.6
			c0.2,0.3,0.4,0.6,0.6,0.9c0.2,0.3,0.4,0.6,0.6,0.8c0.2,0.3,0.4,0.4,0.5,0.5c0.8,0.3,1.7,0.4,2.6,0.3c0.9-0.1,1.8-0.4,2.6-0.7
			c0.8-0.4,3.7-2.2,4.4-2.7c0.7-0.5,1.3-1,1.8-1.5c0.6-0.4,1.1-0.9,1.4-1.4c0.4-0.5,0.6-1,0.9-1.5c0.2-0.5,0.4-1,0.6-1.6
			c-0.7,0.8-1.7,1.4-2.9,2c-1.3,0.6-4.6,2.7-5.9,3.4c-0.2,0.2-0.4,0.3-0.7,0.5c-0.3,0.2-0.6,0.3-1,0.5c-1.1-1.4-1.6-2.7-1.6-3.9
			c0.1-0.7,0.3-1.4,0.5-2.1c0.2-0.7,0.4-1.4,0.6-2.1c0.1-0.3,0.1-0.5-0.1-0.8c-0.2-0.3-0.2-0.7-0.1-1.4C20.3,29,20.5,28.3,20.8,27.5
			z"/>
		<path class="st0" d="M86,37c-1.9,0.8-3.8,1.7-5.6,2.7c-0.5,0.2-1.1,0.5-1.9,0.9c-0.8,0.3-1.4,0.6-1.9,0.8c-1.1-0.4-2-0.9-2.7-1.6
			c-0.8-0.7-1.1-1.3-1.1-1.9c0-0.4,0-0.8,0.1-1.2c0.1-0.4,0.3-0.8,0.7-1.1c0.5-0.5,1.2-0.9,1.9-1.4c0.7-0.4,1.5-0.9,2.2-1.3
			c2.1-1.1,4-2.2,5.7-3.5c1.7-1.2,3.2-2.5,4.5-3.8c0.2-0.2,0.3-0.3,0.4-0.5c0.1-0.2,0.2-0.3,0.3-0.5c0.3-0.6-0.2-1-1.6-1.3
			c-1.5-0.2-2.8-0.6-4.1-1.1c-0.4-0.1-1-0.2-1.7-0.3c-0.5-0.1-1.1-0.1-1.6-0.1c-0.5,0-1,0-1.5-0.1c-2-0.2-3.5,0-4.7,0.7
			c-0.3,0.2-0.6,0.4-0.9,0.5c-0.3,0.2-0.6,0.4-0.8,0.6c-0.4,0.4-0.8,0.8-1.2,1.1c-0.4,0.4-0.7,0.8-1,1.1C68.8,27,68,28,67.2,29
			c-0.8,1-1.5,2.1-1.9,3.1c-0.4,0.7-0.6,1.2-0.7,1.7c-0.1,0.5-0.2,0.9-0.2,1.3c0,0.4,0,0.7,0,1c-0.1,0.1-0.2,0.1-0.3,0.2
			c-0.9,0.5-2,1-3.2,1.5c-0.1-0.3-0.2-0.5-0.3-0.6c-0.1-0.2-0.1-0.3-0.1-0.4c0.1-0.5,0-1-0.1-1.4c-0.1-0.5-0.3-1-0.4-1.4
			c-0.1-0.5-0.2-0.9-0.3-1.4c0-0.5,0.1-1,0.4-1.4c0.1-0.1,0.1-0.3,0-0.4c-0.1-0.1-0.1-0.2,0-0.4c0-0.6,0-1.2,0-1.7
			c0-0.5,0.1-1.1,0.1-1.7c0.1-0.7,0.2-1.3,0.4-2c0.1-0.6,0.2-1.3,0.4-2c0.1-0.6,0-1.1-0.4-1.4c-0.4-0.4-1.1-0.6-2.1-0.6
			c-0.7-0.1-1.4-0.1-2.2,0c-0.7,0.1-1.4,0.1-2.1,0.2c-0.8,1.1-1.6,2.1-2.4,3.1c-0.8,1-1.6,2-2.3,3.1c-0.8,1-1.6,2.1-2.4,3.1
			c-0.8,1-1.5,2.1-2.2,3.1c-0.7,1-1.4,2.1-2,3.1c-0.6,1-1.3,2.1-1.9,3.1c-0.5-0.4-0.7-0.7-0.6-1.1c0.4-1.2,0.8-2.4,1.2-3.6
			c0.4-1.2,0.8-2.4,1.1-3.6c0.6-2,1-3.9,1.4-5.8c0.3-1.9,0.3-1.4,0-3.4c-0.1-0.1,0-0.4,0.1-0.7c0.5-1.2,0.9-2.3,1.4-3.5
			c0.4-1.1,0.8-2.3,1.2-3.5c0.9-2.6,1.7-5.2,2.4-7.9c0.1-0.3,0.2-0.7,0.3-1c0.1-0.3,0.1-0.7,0.1-1c0-0.5-0.2-0.9-0.5-1.2
			c-0.4-0.2-1-0.4-1.8-0.5C46.2,3.1,45.5,3,44.8,3c-0.7,0-1.4,0-2.2,0c-0.2,0.4-0.4,0.7-0.5,1c-0.2,0.3-0.3,0.6-0.4,0.9
			c-0.4,0.9-0.7,1.9-1.1,2.8c-0.4,0.9-0.7,1.9-1,2.8c-0.5,1.4-0.9,2.8-1.4,4.2c-0.5,1.4-0.8,2.8-1.1,4.2c-0.4,1.7-0.6,3.4-0.7,5
			c-0.1,1.7-0.3,0.8-0.6,2.5c-0.3,1-0.5,1.9-0.7,2.6c-0.2,0.7-0.3,1.4-0.4,2c-0.1,0.6-0.2,1.2-0.3,1.8c-0.1,0.5-0.2,1.1-0.3,1.8
			c0,0.4,0,0.8,0,1.1c0,0.3,0,0.6,0,0.8c0,1.1,0,2.2,0,3.2c0,1.1,0.1,2.1,0.1,3.2c0,0.5,0.2,0.9,0.5,1.2c0.3,0.3,0.9,0.6,1.7,0.7
			c0.8,0.1,1.5,0.2,2.1,0.2c0.6,0,1.2,0,1.7-0.1c0.5-0.1,1-0.2,1.4-0.5c0.4-0.2,0.8-0.6,1.2-1.1c0.2-0.3,0.5-0.5,0.7-0.8
			c0.2-0.2,0.4-0.5,0.5-0.8c0.5-1.1,1-2.1,1.5-3.2c0.5-1.1,1-2.1,1.6-3.2c0.3-0.7,0.6-1.4,1-2c0.4-0.7,1-1.3,1.9-1.8
			c0.2,1.1,0.3,2.1,0.5,3.1c0.1,1,0.4,2,0.7,3c0.3,1.4,1.5,2.3,3.6,2.8c1.3,0.3,2.8,0.4,4.2,0.3c1.5-0.1,2.7-0.5,3.7-1.1
			c0.8-0.5,1.5-1.1,2.1-1.8c0,0.1,0.1,0.2,0.2,0.2c0.7,1,1.9,2,3.5,2.8c1.6,0.8,3.5,1.4,5.5,1.7c1.3,0.2,2.5,0.3,3.6,0.3
			c1,0,2-0.2,3-0.6c1.7-0.7,3.2-1.4,4.6-2c1.3-0.6,2.5-1.4,3.4-2.3c0.3-0.3,0.5-0.6,0.7-1c0.2-0.4,0.4-0.7,0.5-1
			c0.2-0.4,0.3-0.8,0.4-1.1C89.3,35.6,87.9,36.3,86,37z M76.4,27c0.8-0.9,1.8-1.7,3.1-2.5c0.6-0.4,1-0.6,1.4-0.6
			c0.3,0,1.1,0.1,2.2,0.3c-1.1,1.6-3.8,3.6-7.9,6c-0.1-0.1-0.2-0.1-0.3-0.2c-0.1-0.1-0.1-0.1-0.1-0.2C75.1,28.8,75.7,27.9,76.4,27z"
			/>
	</g>
	<g>
		<polygon class="st0" points="378,161.6 379.5,161.6 379.5,166.8 380.2,166.8 380.2,161.6 381.7,161.6 381.7,160.9 378,160.9 		"/>
		<polygon class="st0" points="385.8,160.9 384.6,165.6 384.6,165.6 383.5,160.9 382.2,160.9 382.2,166.8 383,166.8 383,161.7 
			383,161.7 384.3,166.8 385,166.8 386.3,161.7 386.3,161.7 386.3,166.8 387,166.8 387,160.9 		"/>
		<path class="st0" d="M26.8,68.9c-14.9,0-22.7,8.9-22.7,24.3v50.3c0,15.5,7.7,24.3,22.7,24.3c14.9,0,22.7-8.8,22.7-24.3v-12.9H35.1
			v13.8c0,6.9-3,9.4-7.9,9.4c-4.8,0-7.9-2.5-7.9-9.4V92.3c0-6.9,3-9.5,7.9-9.5c4.8,0,7.9,2.6,7.9,9.5v10.4h14.4v-9.4
			C49.4,77.8,41.7,68.9,26.8,68.9z"/>
		<path class="st0" d="M80.5,68.9c-14.9,0-23.1,8.9-23.1,24.3v50.3c0,15.5,8.2,24.3,23.1,24.3c14.9,0,23.1-8.8,23.1-24.3V93.3
			C103.6,77.8,95.5,68.9,80.5,68.9z M88.4,144.6c0,6.9-3,9.5-7.9,9.5c-4.8,0-7.9-2.6-7.9-9.5V92.3c0-6.9,3-9.5,7.9-9.5
			c4.8,0,7.9,2.6,7.9,9.5V144.6z"/>
		<path class="st0" d="M143.7,144.7c0,6.9-3,9.4-7.9,9.4c-4.8,0-7.9-2.5-7.9-9.4V70.1h-15.2v73.7c0,15.5,7.7,24.3,22.7,24.3
			c14.9,0,22.7-8.8,22.7-24.3V70.1h-14.4V144.7z"/>
		<polygon class="st0" points="203,128 187.4,70.1 168.3,70.1 168.3,166.8 182,166.8 182,96.7 200.9,166.8 216.6,166.8 216.6,70.1 
			203,70.1 		"/>
		<polygon class="st0" points="276.7,166.8 318.2,166.8 318.2,153 291.9,153 291.9,124.7 312.8,124.7 312.8,110.8 291.9,110.8 
			291.9,83.9 318.2,83.9 318.2,70.1 276.7,70.1 		"/>
		<path class="st0" d="M373.2,140.1c0-10.1-2.5-17.4-10.1-20.6c6.8-3.2,10-9.7,10-19.6v-7.6c0-14.9-6.8-22.3-22.5-22.3h-22.9v96.8
			h15.2v-39.4h5.3c6.9,0,10,3.3,10,12.3v15.2c0,7.9,0.6,9.4,1.4,11.9h15.5c-1.5-3.6-1.7-7.1-1.7-11.7V140.1z M357.8,103.4
			c0,7.7-3.5,10.2-9.1,10.2h-5.9V83.9h7.3c5.4,0,7.7,3,7.7,10V103.4z"/>
		<polygon class="st0" points="225,94.2 238.8,94.2 238.8,168.1 252.6,168.1 252.6,94.2 266.5,94.2 266.5,80.6 225,80.6 		"/>
	</g>
	<g>
		<g>
			<g>
				<g>
					<g>
						<g>
							<rect x="4.3" y="53.1" class="st1" width="370.5" height="5.9"/>
						</g>
					</g>
				</g>
			</g>
		</g>
	</g>
	<g>
		<path class="st1" d="M13,182.2c0.8,0,2.4,0,3.2,0.4c0.2,0.1,0.6,0.3,0.6,1.5h4.9c0-1.4-0.3-2.6-0.9-3.6c-0.6-1-1.4-1.8-2.5-2.3
			c-1.7-0.8-3.6-0.9-5.4-0.9c-2,0-4.6,0.3-6.4,2.3c-0.8,0.9-1.4,2.1-1.8,3.6c-0.4,1.4-0.5,3-0.5,5c0,2,0.1,3.6,0.5,5
			c0.4,1.5,0.9,2.7,1.8,3.5c1.7,2,4.3,2.2,6.4,2.2c1.7,0,3.7-0.1,5.4-0.9c1-0.5,1.8-1.3,2.5-2.3c0.6-1,0.9-2.2,0.9-3.6h-4.9
			c0,1.2-0.4,1.4-0.6,1.5c-0.9,0.4-2.5,0.4-3.2,0.4c-2,0-2.5-0.3-2.8-0.6c-0.3-0.3-0.5-0.7-0.7-1.4c-0.2-0.9-0.4-2.2-0.4-3.8
			c0-3.4,0.6-4.8,1-5.3C10.6,182.6,11.1,182.2,13,182.2z"/>
		<path class="st1" d="M43.4,191.5c0,1.4-1.1,2.5-2.5,2.5s-2.5-1.1-2.5-2.5v-14.3h-4.9v14.3c0,2,0.8,3.8,2.2,5.2
			c1.4,1.4,3.2,2.2,5.2,2.2c2,0,3.8-0.7,5.2-2.2c1.4-1.4,2.2-3.2,2.2-5.2v-14.3h-4.9V191.5z"/>
		<path class="st1" d="M68.3,182.2c3.3,0,3.3,1,3.3,1.9h4.9c0-1.2-0.2-2.3-0.7-3.2c-0.5-0.9-1.2-1.7-2.1-2.3
			c-1.3-0.9-3.1-1.3-5.4-1.3c-2.2,0-4.1,0.4-5.4,1.3c-0.9,0.6-1.6,1.3-2.1,2.3c-0.5,0.9-0.7,2-0.7,3.2c0,1.2,0.2,2.3,0.7,3.2
			c0.5,0.9,1.2,1.7,2.2,2.2c1.3,0.7,2.9,1.1,5.3,1.1c1.7,0,2.5,0.3,2.8,0.5c0.2,0.1,0.5,0.3,0.5,1.3c0,0.9-0.3,1.1-0.5,1.2
			c-0.4,0.2-1.2,0.5-2.8,0.5c-1.7,0-2.5-0.3-2.8-0.5c-0.2-0.1-0.5-0.3-0.5-1.2h-4.9c0,1.2,0.2,2.3,0.7,3.2c0.5,0.9,1.2,1.7,2.1,2.2
			c1.3,0.8,3,1.2,5.3,1.2c2.3,0,4-0.4,5.3-1.2c0.9-0.6,1.6-1.3,2.1-2.2c0.5-0.9,0.7-2,0.7-3.2c0-1.2-0.2-2.3-0.7-3.2
			c-0.5-0.9-1.2-1.7-2.1-2.2c-1.3-0.8-3-1.2-5.3-1.2c-1.4,0-2.3-0.1-2.9-0.4c-0.2-0.1-0.4-0.2-0.4-1.2C65,183.2,65,182.2,68.3,182.2
			z"/>
		<polygon class="st1" points="88,182 92.8,182 92.8,198.9 97.7,198.9 97.7,182 102.5,182 102.5,177.2 88,177.2 		"/>
		<path class="st1" d="M128.7,179.4c-0.8-0.9-1.9-1.5-3.1-1.9c-0.9-0.3-2-0.4-3.3-0.4c-1.3,0-2.5,0.1-3.3,0.4
			c-1.3,0.4-2.3,1-3.1,1.9c-0.8,0.9-1.4,2.2-1.8,3.6c-0.4,1.4-0.5,3-0.5,5.1c0,2,0.1,3.7,0.5,5c0.3,1.4,0.9,2.6,1.7,3.5l0.1,0.1
			c1.8,1.9,4.2,2.2,6.4,2.2c2.2,0,4.6-0.3,6.4-2.2c0.9-0.9,1.4-2.1,1.8-3.6c0.3-1.3,0.5-3,0.5-5c0-2-0.2-3.7-0.5-5.1
			C130.1,181.6,129.5,180.4,128.7,179.4z M125.2,193.5c-0.4,0.5-1.3,0.7-3,0.7c-1.7,0-2.5-0.2-3-0.7c-0.1-0.1-0.1-0.1-0.2-0.2
			c-0.4-0.7-0.9-2.1-0.9-5.2c0-3.6,0.6-5,1.1-5.5c0.4-0.4,0.9-0.7,3-0.7c2,0,2.6,0.4,2.9,0.7l0.2,0.2c0.4,0.7,0.9,2.2,0.9,5.4
			C126.3,191.7,125.7,193,125.2,193.5z"/>
		<path class="st1" d="M230.1,191.5c0,1.4-1.1,2.5-2.5,2.5s-2.5-1.1-2.5-2.5v-14.3h-4.9v14.3c0,2,0.8,3.8,2.2,5.2
			c1.4,1.4,3.2,2.2,5.2,2.2c2,0,3.8-0.7,5.2-2.2c1.4-1.4,2.2-3.2,2.2-5.2v-14.3h-4.9V191.5z"/>
		<path class="st1" d="M262.7,184c0-1.8-0.7-3.5-2-4.8c-1.3-1.3-3-2-4.8-2h-9.1v21.7h4.8v-8.2h2.7l3.1,8.2h5.2l-3.4-9
			c0.6-0.3,1-0.7,1.5-1.1C262,187.5,262.7,185.8,262.7,184z M255.9,185.8h-4.3v-3.7h4.3c1,0,1.8,0.9,1.8,1.9
			C257.8,185,257,185.8,255.9,185.8z"/>
		<path class="st1" d="M282.7,182.2c0.8,0,2.4,0,3.2,0.4c0.2,0.1,0.6,0.3,0.6,1.5h4.9c0-1.4-0.3-2.6-0.9-3.6c-0.6-1-1.4-1.7-2.5-2.3
			c-1.7-0.8-3.6-0.9-5.4-0.9c-2,0-4.6,0.2-6.4,2.3c-0.8,0.9-1.4,2.2-1.8,3.6c-0.3,1.4-0.5,3-0.5,5c0,2,0.2,3.6,0.5,5
			c0.4,1.5,0.9,2.7,1.8,3.5c1.8,1.9,4.2,2.2,6.4,2.2c1.7,0,3.7-0.1,5.4-0.9c1.1-0.5,1.9-1.3,2.5-2.3c0.6-1,0.8-2.1,0.9-3.4v-1.7
			v-4.9h-4.9h-3.8v4.9h3.8v1.5c0,1.2-0.4,1.4-0.6,1.5c-0.9,0.4-2.5,0.4-3.2,0.4c-2,0-2.5-0.3-2.8-0.6c-0.3-0.3-0.5-0.7-0.7-1.4
			c-0.2-0.9-0.4-2.2-0.4-3.8c0-3.4,0.6-4.8,1-5.3C280.3,182.5,280.8,182.2,282.7,182.2z"/>
		<polygon class="st1" points="303.2,198.9 319,198.9 319,194 308.1,194 308.1,190.5 319,190.5 319,185.6 308.1,185.6 308.1,182.1 
			319,182.1 319,177.2 303.2,177.2 		"/>
		<path class="st1" d="M346.6,184c0-1.8-0.7-3.5-2-4.8c-1.3-1.3-3-2-4.8-2h-9.1v21.7h4.8v-8.2h2.7l3.1,8.2h5.2l-3.4-9
			c0.6-0.3,1-0.7,1.5-1.1C346,187.5,346.6,185.8,346.6,184z M339.9,185.8h-4.3v-3.7h4.3c1,0,1.8,0.9,1.8,1.9
			C341.8,185,340.9,185.8,339.9,185.8z"/>
		<path class="st1" d="M372,186.8c-1.3-0.8-3-1.2-5.3-1.2c-1.4,0-2.3-0.1-2.9-0.4c-0.2-0.1-0.4-0.2-0.4-1.2c0-0.9,0-1.9,3.3-1.9
			c3.3,0,3.3,1,3.3,1.9h4.9c0-1.2-0.2-2.3-0.7-3.2c-0.5-0.9-1.2-1.7-2.1-2.3c-1.3-0.9-3.1-1.3-5.4-1.3c-2.2,0-4.1,0.4-5.4,1.3
			c-0.9,0.6-1.6,1.3-2.1,2.3c-0.5,0.9-0.7,2-0.7,3.2c0,1.2,0.2,2.3,0.7,3.2c0.5,0.9,1.2,1.7,2.2,2.2c1.3,0.7,2.9,1.1,5.3,1.1
			c1.7,0,2.5,0.3,2.8,0.5c0.2,0.1,0.5,0.3,0.5,1.3c0,0.9-0.3,1.1-0.5,1.2c-0.4,0.2-1.2,0.5-2.8,0.5c-1.7,0-2.5-0.3-2.8-0.5
			c-0.2-0.1-0.5-0.3-0.5-1.2h-4.9c0,1.2,0.2,2.3,0.7,3.2c0.5,0.9,1.2,1.7,2.1,2.2c1.3,0.8,3,1.2,5.3,1.2c2.3,0,4-0.4,5.3-1.2
			c0.9-0.6,1.6-1.3,2.1-2.2c0.5-0.9,0.7-2,0.7-3.2c0-1.2-0.2-2.3-0.7-3.2C373.6,188.1,372.9,187.4,372,186.8z"/>
		<path class="st1" d="M205.9,187.6c2.4-1.6,2.9-3.8,2.3-6.2c-0.6-2.6-2.5-4-5-4.1c-3.4-0.2-6.8-0.2-10.2-0.2c-0.8,0-1.6,0-2.5,0
			c0,3.8,0,7.4,0,11c0,3.6,0,7.2,0,10.8c4.4,0,8.6,0.1,12.8,0c3.1-0.1,5.3-2.1,5.9-4.6C209.9,191.2,209,189.4,205.9,187.6z
			 M195.5,181.8c2,0,3.8,0,5.7,0c1.1,0,1.7,0.7,1.8,1.7c0.1,1.1-0.4,2-1.7,2c-1.9,0.1-3.8,0-5.8,0
			C195.5,184.4,195.5,183.2,195.5,181.8z M202,194.4c-2.2,0.1-4.3,0-6.6,0c0-1.4,0-2.7,0-4.3c2.2,0,4.3,0,6.4,0c1.3,0,2,0.7,2,1.9
			C204,193.3,203.4,194.3,202,194.4z"/>
		<polygon class="st1" points="159.8,177.3 153.5,189.9 147.1,177.3 142.7,177.3 142.7,177.3 142.7,198.9 147.6,198.9 147.6,188.5 
			153.5,198.9 159.3,188.5 159.3,198.9 164.2,198.9 164.2,177.3 164.2,177.3 		"/>
	</g>
</g>
</svg>
