<?xml version="1.0" encoding="utf-8"?>
<!-- Generator: Adobe Illustrator 19.0.0, SVG Export Plug-In . SVG Version: 6.00 Build 0)  -->
<!DOCTYPE svg PUBLIC "-//W3C//DTD SVG 1.1//EN" "http://www.w3.org/Graphics/SVG/1.1/DTD/svg11.dtd">
<svg version="1.1" id="Layer_1" xmlns="http://www.w3.org/2000/svg" xmlns:xlink="http://www.w3.org/1999/xlink" x="0px" y="0px"
	 viewBox="0 0 25.6 20.8" style="enable-background:new 0 0 25.6 20.8;" xml:space="preserve">
<style type="text/css">
	.st0{fill:#182D35;}
</style>
<path id="XMLID_405_" class="st0" d="M25.6,2.5c-0.9,0.4-2,0.7-3,0.8c1.1-0.6,1.9-1.7,2.3-2.9c-1,0.6-2.1,1-3.3,1.3
	c-1-1-2.3-1.7-3.8-1.7c-2.9,0-5.3,2.4-5.3,5.3c0,0.4,0,0.8,0.1,1.2C8.3,6.2,4.4,4.1,1.8,1C1.3,1.7,1.1,2.6,1.1,3.6
	C1.1,5.4,2,7,3.4,8C2.6,8,1.7,7.7,1,7.3v0.1c0,2.5,1.8,4.7,4.2,5.2c-0.4,0.1-0.9,0.2-1.4,0.2c-0.3,0-0.7,0-1-0.1
	c0.7,2.1,2.6,3.6,4.9,3.7c-1.8,1.4-4.1,2.3-6.5,2.3c-0.4,0-0.8,0-1.3-0.1c2.3,1.5,5.1,2.4,8.1,2.4c9.7,0,15-8,15-15
	c0-0.2,0-0.5,0-0.7C24,4.4,24.9,3.5,25.6,2.5"/>
</svg>
